<svg width="302" height="118" viewBox="0 0 302 118" fill="none" xmlns="http://www.w3.org/2000/svg">
<rect y="2" width="302" height="116" fill="white"/>
<path d="M38.65 106.2C36.55 106.2 34.95 105.633 33.85 104.5C32.75 103.367 32.2 101.95 32.2 100.25C32.2 98.75 32.5667 97.1833 33.3 95.55C34.0667 93.8833 35.0833 92.3333 36.35 90.9C37.6167 89.4333 39 88.25 40.5 87.35C42.0333 86.4167 43.55 85.95 45.05 85.95C45.8833 85.95 46.6667 86.1667 47.4 86.6C48.1667 87.0333 48.55 87.9 48.55 89.2C48.55 90.4667 48.1667 91.6667 47.4 92.8C46.6667 93.9 45.6833 94.8833 44.45 95.75C43.25 96.6167 41.9 97.3333 40.4 97.9C38.9333 98.4333 37.4667 98.7667 36 98.9C35.9667 99.1 35.9333 99.3 35.9 99.5C35.8667 99.7 35.85 99.9667 35.85 100.3C35.85 100.567 35.8833 100.933 35.95 101.4C36.05 101.833 36.2167 102.283 36.45 102.75C36.7167 103.183 37.1167 103.55 37.65 103.85C38.1833 104.15 38.8833 104.3 39.75 104.3C41.15 104.3 42.55 103.9 43.95 103.1C45.3833 102.3 46.7167 101.25 47.95 99.95C49.1833 98.6167 50.2167 97.15 51.05 95.55L51.9 96.25C51 98.25 49.85 100 48.45 101.5C47.05 102.967 45.5 104.117 43.8 104.95C42.1333 105.783 40.4167 106.2 38.65 106.2ZM36.45 97.35C37.3167 97.1833 38.3 96.85 39.4 96.35C40.5 95.8167 41.55 95.1667 42.55 94.4C43.55 93.6 44.3667 92.7333 45 91.8C45.6667 90.8667 46 89.9167 46 88.95C46 88.5833 45.9333 88.3167 45.8 88.15C45.6667 87.9833 45.4333 87.9 45.1 87.9C44.3 87.9 43.4667 88.2 42.6 88.8C41.7667 89.3667 40.9333 90.1167 40.1 91.05C39.3 91.95 38.5833 92.9667 37.95 94.1C37.3167 95.2 36.8167 96.2833 36.45 97.35ZM52.4445 106.95C52.2112 106.95 52.0279 106.85 51.8945 106.65C51.7612 106.45 51.6945 106.25 51.6945 106.05C51.6945 105.583 52.0445 104.85 52.7445 103.85C53.4445 102.817 54.3612 101.633 55.4945 100.3C56.6279 98.9333 57.8445 97.55 59.1445 96.15C58.9112 94.5167 58.6612 93.2333 58.3945 92.3C58.1279 91.3333 57.6279 90.85 56.8945 90.85C56.1279 90.85 55.4279 91.2167 54.7945 91.95C54.1612 92.65 53.5445 93.55 52.9445 94.65C52.3445 95.75 51.7112 96.8667 51.0445 98L50.3445 96.8C50.8112 95.9333 51.2445 95.0333 51.6445 94.1C52.0779 93.1333 52.5445 92.2167 53.0445 91.35C53.5445 90.4833 54.1612 89.7833 54.8945 89.25C55.6612 88.7167 56.6112 88.45 57.7445 88.45C59.0779 88.45 60.0779 88.8667 60.7445 89.7C61.4112 90.5 61.8945 91.55 62.1945 92.85C63.7279 91.3167 65.1112 90.0333 66.3445 89C67.6112 87.9333 68.4612 87.4 68.8945 87.4C69.0945 87.4 69.3612 87.4833 69.6945 87.65C70.0612 87.8167 70.3112 88.0833 70.4445 88.45C70.0112 88.45 69.3945 88.75 68.5945 89.35C67.7945 89.95 66.8612 90.7667 65.7945 91.8C64.7612 92.8333 63.6945 93.9667 62.5945 95.2C62.6945 95.8667 62.7779 96.65 62.8445 97.55C62.9112 98.4167 63.0279 99.2833 63.1945 100.15C63.3612 100.983 63.6112 101.683 63.9445 102.25C64.3112 102.817 64.7945 103.1 65.3945 103.1C65.9612 103.1 66.5779 102.85 67.2445 102.35C67.9112 101.85 68.5612 101.217 69.1945 100.45C69.8612 99.65 70.4612 98.8333 70.9945 98C71.5612 97.1333 72.0112 96.3333 72.3445 95.6L73.0445 96.3C72.5112 97.7667 71.7612 99.2 70.7945 100.6C69.8279 101.967 68.7445 103.1 67.5445 104C66.3779 104.9 65.1779 105.35 63.9445 105.35C62.9112 105.35 62.0945 105.033 61.4945 104.4C60.9279 103.767 60.4945 102.967 60.1945 102C59.8945 101.033 59.6612 100.017 59.4945 98.95C58.1279 100.517 56.8779 101.983 55.7445 103.35C54.6445 104.717 53.8112 105.783 53.2445 106.55C53.0112 106.817 52.7445 106.95 52.4445 106.95ZM75.6336 106.3C74.1669 106.3 73.0003 105.867 72.1336 105C71.3003 104.167 70.8836 102.883 70.8836 101.15C70.8836 99.75 71.1503 98.0167 71.6836 95.95C72.2169 93.8833 72.8836 91.75 73.6836 89.55C73.4169 89.4833 73.1169 89.4333 72.7836 89.4C72.4836 89.3333 72.2003 89.2333 71.9336 89.1V87.75C72.3669 87.8167 72.7503 87.8667 73.0836 87.9C73.4503 87.9333 73.8336 87.9667 74.2336 88C74.9336 86.2333 75.6836 84.5167 76.4836 82.85C77.3169 81.1833 78.1336 79.7 78.9336 78.4C79.7336 77.1 80.5003 76.0667 81.2336 75.3C81.9669 74.5333 82.6003 74.15 83.1336 74.15C83.4669 74.15 83.7669 74.2667 84.0336 74.5C84.3003 74.7333 84.4336 75.0667 84.4336 75.5C84.4336 76.1333 84.0836 77.0833 83.3836 78.35C82.7169 79.5833 81.8669 81.05 80.8336 82.75C79.8336 84.4167 78.8669 86.2167 77.9336 88.15C78.2003 88.15 78.4669 88.15 78.7336 88.15C79.0336 88.15 79.3169 88.15 79.5836 88.15C80.9169 88.15 82.1836 88.1333 83.3836 88.1C84.5836 88.0333 85.8003 87.9333 87.0336 87.8V89.2C85.2003 89.4 83.5169 89.55 81.9836 89.65C80.4836 89.75 79.0836 89.8 77.7836 89.8C77.6836 89.8 77.5669 89.8 77.4336 89.8C77.3336 89.8 77.2336 89.8 77.1336 89.8C76.4003 91.5 75.7669 93.2333 75.2336 95C74.7336 96.7667 74.4836 98.4833 74.4836 100.15C74.4836 101.55 74.7003 102.55 75.1336 103.15C75.5669 103.717 76.2669 104 77.2336 104C78.9003 104 80.6003 103.233 82.3336 101.7C84.0669 100.167 85.5669 98.1 86.8336 95.5L87.5336 96C86.7003 97.9333 85.6503 99.6833 84.3836 101.25C83.1169 102.817 81.7336 104.05 80.2336 104.95C78.7669 105.85 77.2336 106.3 75.6336 106.3Z" fill="#4285F4"/>
<path d="M212.3 107.9C211.6 107.9 211.083 107.333 210.75 106.2C210.417 105.1 210.25 103.833 210.25 102.4C210.25 100.833 210.517 98.9667 211.05 96.8C211.583 94.6333 212.283 92.35 213.15 89.95C214.017 87.5167 214.983 85.15 216.05 82.85C217.15 80.5167 218.267 78.4167 219.4 76.55C220.567 74.65 221.667 73.1333 222.7 72C223.733 70.8667 224.633 70.3 225.4 70.3C226.067 70.3 226.567 70.6833 226.9 71.45C227.233 72.1833 227.4 72.9333 227.4 73.7C227.4 74.6333 227.183 75.7667 226.75 77.1C226.35 78.4 225.783 79.8 225.05 81.3C224.317 82.8 223.45 84.2833 222.45 85.75C221.483 87.2167 220.433 88.55 219.3 89.75C218.167 90.95 216.983 91.9167 215.75 92.65C215.35 93.7167 215.017 94.7833 214.75 95.85C214.483 96.8833 214.283 97.8833 214.15 98.85C214.05 99.8167 214 100.733 214 101.6C214 101.833 214 102.067 214 102.3C214.033 102.5 214.067 102.683 214.1 102.85C214.333 102.25 214.633 101.467 215 100.5C215.4 99.5 215.867 98.45 216.4 97.35C216.967 96.25 217.617 95.2 218.35 94.2C219.117 93.2 219.983 92.4 220.95 91.8C221.917 91.1667 222.983 90.85 224.15 90.85C225.217 90.85 226.05 91.1 226.65 91.6C227.283 92.0667 227.717 92.6667 227.95 93.4C228.217 94.1333 228.35 94.8833 228.35 95.65C228.35 96.6833 228.167 97.6833 227.8 98.65C227.467 99.5833 227.117 100.483 226.75 101.35C226.417 102.183 226.25 102.983 226.25 103.75C226.25 104.35 226.383 104.783 226.65 105.05C226.917 105.317 227.25 105.45 227.65 105.45C228.383 105.45 229.233 105.083 230.2 104.35C231.2 103.617 232.167 102.65 233.1 101.45C234.067 100.217 234.9 98.8667 235.6 97.4L236.35 98.15C235.617 99.8167 234.733 101.333 233.7 102.7C232.667 104.067 231.533 105.167 230.3 106C229.1 106.8 227.817 107.2 226.45 107.2C225.217 107.2 224.283 106.867 223.65 106.2C223.017 105.567 222.7 104.767 222.7 103.8C222.7 103.1 222.817 102.333 223.05 101.5C223.317 100.633 223.567 99.7667 223.8 98.9C224.033 98 224.15 97.1833 224.15 96.45C224.15 95.65 223.967 95.0833 223.6 94.75C223.267 94.4167 222.85 94.25 222.35 94.25C221.517 94.25 220.767 94.5833 220.1 95.25C219.433 95.9167 218.817 96.7667 218.25 97.8C217.717 98.8333 217.217 99.9333 216.75 101.1C216.283 102.233 215.817 103.333 215.35 104.4C214.917 105.433 214.45 106.267 213.95 106.9C213.45 107.567 212.9 107.9 212.3 107.9ZM216.7 89.85C217.567 89.0833 218.417 88.1667 219.25 87.1C220.083 86 220.85 84.85 221.55 83.65C222.283 82.45 222.917 81.2833 223.45 80.15C223.983 79.0167 224.4 78 224.7 77.1C225.033 76.2 225.217 75.5 225.25 75C225.25 74.9333 225.233 74.8833 225.2 74.85C225.2 74.8167 225.183 74.8 225.15 74.8C224.95 74.8 224.517 75.2333 223.85 76.1C223.183 76.9333 222.4 78.0667 221.5 79.5C220.633 80.9333 219.767 82.55 218.9 84.35C218.033 86.15 217.3 87.9833 216.7 89.85ZM237.764 107.6C236.297 107.6 235.281 107.117 234.714 106.15C234.147 105.217 233.864 104.15 233.864 102.95C233.864 101.883 234.031 100.8 234.364 99.7C234.697 98.6 235.147 97.5667 235.714 96.6C236.281 95.6333 236.914 94.85 237.614 94.25C238.314 93.65 239.031 93.35 239.764 93.35C239.964 93.35 240.197 93.4 240.464 93.5C240.764 93.5667 240.981 93.6667 241.114 93.8C240.747 94.2 240.347 94.7667 239.914 95.5C239.514 96.2333 239.131 97.0333 238.764 97.9C238.431 98.7333 238.147 99.5833 237.914 100.45C237.714 101.283 237.614 102.05 237.614 102.75C237.614 103.517 237.747 104.117 238.014 104.55C238.281 104.983 238.714 105.2 239.314 105.2C239.981 105.2 240.764 104.85 241.664 104.15C242.597 103.417 243.481 102.533 244.314 101.5C243.281 100.6 242.514 99.5667 242.014 98.4C241.547 97.2 241.314 95.85 241.314 94.35C241.314 93.5167 241.497 92.6333 241.864 91.7C242.231 90.7667 242.797 89.9833 243.564 89.35C244.331 88.7167 245.331 88.4 246.564 88.4C247.964 88.4 248.931 88.8 249.464 89.6C250.031 90.3667 250.314 91.3 250.314 92.4C250.314 93.6333 249.981 95.0333 249.314 96.6C248.681 98.1333 247.914 99.6 247.014 101C247.481 101.267 247.997 101.4 248.564 101.4C249.064 101.4 249.664 101.283 250.364 101.05C251.064 100.817 251.731 100.433 252.364 99.9C253.031 99.3333 253.564 98.6 253.964 97.7L254.764 98.3C254.064 99.9333 253.097 101.133 251.864 101.9C250.664 102.633 249.497 103 248.364 103C247.931 103 247.497 102.967 247.064 102.9C246.631 102.8 246.231 102.667 245.864 102.5C244.731 103.9 243.447 105.1 242.014 106.1C240.614 107.1 239.197 107.6 237.764 107.6ZM245.464 100C246.297 98.8333 246.981 97.5833 247.514 96.25C248.081 94.8833 248.364 93.6333 248.364 92.5C248.364 91.6667 248.231 91.0667 247.964 90.7C247.731 90.3 247.397 90.1 246.964 90.1C246.297 90.1 245.631 90.5667 244.964 91.5C244.297 92.4 243.964 93.55 243.964 94.95C243.964 95.75 244.081 96.65 244.314 97.65C244.581 98.6167 244.964 99.4 245.464 100ZM257.37 108.3C255.903 108.3 254.737 107.867 253.87 107C253.037 106.167 252.62 104.883 252.62 103.15C252.62 101.75 252.887 100.017 253.42 97.95C253.953 95.8833 254.62 93.75 255.42 91.55C255.153 91.4833 254.853 91.4333 254.52 91.4C254.22 91.3333 253.937 91.2333 253.67 91.1V89.75C254.103 89.8167 254.487 89.8667 254.82 89.9C255.187 89.9333 255.57 89.9667 255.97 90C256.67 88.2333 257.42 86.5167 258.22 84.85C259.053 83.1833 259.87 81.7 260.67 80.4C261.47 79.1 262.237 78.0667 262.97 77.3C263.703 76.5333 264.337 76.15 264.87 76.15C265.203 76.15 265.503 76.2667 265.77 76.5C266.037 76.7333 266.17 77.0667 266.17 77.5C266.17 78.1333 265.82 79.0833 265.12 80.35C264.453 81.5833 263.603 83.05 262.57 84.75C261.57 86.4167 260.603 88.2167 259.67 90.15C259.937 90.15 260.203 90.15 260.47 90.15C260.77 90.15 261.053 90.15 261.32 90.15C262.653 90.15 263.92 90.1333 265.12 90.1C266.32 90.0333 267.537 89.9333 268.77 89.8V91.2C266.937 91.4 265.253 91.55 263.72 91.65C262.22 91.75 260.82 91.8 259.52 91.8C259.42 91.8 259.303 91.8 259.17 91.8C259.07 91.8 258.97 91.8 258.87 91.8C258.137 93.5 257.503 95.2333 256.97 97C256.47 98.7667 256.22 100.483 256.22 102.15C256.22 103.55 256.437 104.55 256.87 105.15C257.303 105.717 258.003 106 258.97 106C260.637 106 262.337 105.233 264.07 103.7C265.803 102.167 267.303 100.1 268.57 97.5L269.27 98C268.437 99.9333 267.387 101.683 266.12 103.25C264.853 104.817 263.47 106.05 261.97 106.95C260.503 107.85 258.97 108.3 257.37 108.3ZM270.625 107.6C269.159 107.6 268.142 107.117 267.575 106.15C267.009 105.217 266.725 104.15 266.725 102.95C266.725 101.883 266.892 100.8 267.225 99.7C267.559 98.6 268.009 97.5667 268.575 96.6C269.142 95.6333 269.775 94.85 270.475 94.25C271.175 93.65 271.892 93.35 272.625 93.35C272.825 93.35 273.059 93.4 273.325 93.5C273.625 93.5667 273.842 93.6667 273.975 93.8C273.609 94.2 273.209 94.7667 272.775 95.5C272.375 96.2333 271.992 97.0333 271.625 97.9C271.292 98.7333 271.009 99.5833 270.775 100.45C270.575 101.283 270.475 102.05 270.475 102.75C270.475 103.517 270.609 104.117 270.875 104.55C271.142 104.983 271.575 105.2 272.175 105.2C272.842 105.2 273.625 104.85 274.525 104.15C275.459 103.417 276.342 102.533 277.175 101.5C276.142 100.6 275.375 99.5667 274.875 98.4C274.409 97.2 274.175 95.85 274.175 94.35C274.175 93.5167 274.359 92.6333 274.725 91.7C275.092 90.7667 275.659 89.9833 276.425 89.35C277.192 88.7167 278.192 88.4 279.425 88.4C280.825 88.4 281.792 88.8 282.325 89.6C282.892 90.3667 283.175 91.3 283.175 92.4C283.175 93.6333 282.842 95.0333 282.175 96.6C281.542 98.1333 280.775 99.6 279.875 101C280.342 101.267 280.859 101.4 281.425 101.4C281.925 101.4 282.525 101.283 283.225 101.05C283.925 100.817 284.592 100.433 285.225 99.9C285.892 99.3333 286.425 98.6 286.825 97.7L287.625 98.3C286.925 99.9333 285.959 101.133 284.725 101.9C283.525 102.633 282.359 103 281.225 103C280.792 103 280.359 102.967 279.925 102.9C279.492 102.8 279.092 102.667 278.725 102.5C277.592 103.9 276.309 105.1 274.875 106.1C273.475 107.1 272.059 107.6 270.625 107.6ZM278.325 100C279.159 98.8333 279.842 97.5833 280.375 96.25C280.942 94.8833 281.225 93.6333 281.225 92.5C281.225 91.6667 281.092 91.0667 280.825 90.7C280.592 90.3 280.259 90.1 279.825 90.1C279.159 90.1 278.492 90.5667 277.825 91.5C277.159 92.4 276.825 93.55 276.825 94.95C276.825 95.75 276.942 96.65 277.175 97.65C277.442 98.6167 277.825 99.4 278.325 100Z" fill="#4285F4"/>
<path d="M171.6 103C170.367 103 169.417 102.683 168.75 102.05C168.117 101.417 167.8 100.617 167.8 99.65C167.8 98.95 167.917 98.2333 168.15 97.5C168.383 96.7333 168.617 95.9667 168.85 95.2C169.083 94.4 169.2 93.6333 169.2 92.9C169.2 92.1 169.017 91.55 168.65 91.25C168.283 90.95 167.85 90.8 167.35 90.8C166.35 90.8 165.317 91.2167 164.25 92.05C163.217 92.8833 162.2 93.9333 161.2 95.2C160.2 96.4333 159.267 97.7333 158.4 99.1C157.533 100.467 156.783 101.683 156.15 102.75C155.55 102.75 154.983 102.65 154.45 102.45C153.917 102.25 153.467 101.9 153.1 101.4C153.133 101.233 153.333 100.733 153.7 99.9C154.033 99.0333 154.417 98 154.85 96.8C155.283 95.5667 155.667 94.3 156 93C156.367 91.7 156.55 90.5 156.55 89.4C156.783 89.1667 157.133 88.9167 157.6 88.65C158.067 88.3833 158.55 88.25 159.05 88.25C160.117 88.25 160.65 88.7333 160.65 89.7C160.65 90.1333 160.55 90.8333 160.35 91.8C160.15 92.7333 159.883 93.7667 159.55 94.9C160.417 93.6667 161.383 92.4833 162.45 91.35C163.517 90.1833 164.633 89.2333 165.8 88.5C166.967 87.7667 168.15 87.4 169.35 87.4C170.717 87.4 171.717 87.8833 172.35 88.85C173.017 89.7833 173.35 90.8333 173.35 92C173.35 93 173.183 93.95 172.85 94.85C172.517 95.7167 172.183 96.55 171.85 97.35C171.55 98.1167 171.4 98.8833 171.4 99.65C171.4 100.217 171.517 100.633 171.75 100.9C172.017 101.133 172.333 101.25 172.7 101.25C173.5 101.25 174.317 100.867 175.15 100.1C176.017 99.3 176.833 98.3167 177.6 97.15C178.4 95.95 179.1 94.75 179.7 93.55L180.45 94.2C179.75 95.8333 178.967 97.3167 178.1 98.65C177.233 99.9833 176.267 101.05 175.2 101.85C174.133 102.617 172.933 103 171.6 103Z" fill="#4285F4"/>
<path d="M25.63 114.57C21.5967 114.57 18.81 113.763 17.27 112.15C15.73 110.61 14.9233 108.593 14.85 106.1C14.85 103.973 15.2533 101.443 16.06 98.51C16.94 95.5033 17.82 92.6433 18.7 89.93C20.46 84.7233 22.2933 79.59 24.2 74.53C26.1067 69.47 28.0133 64.5933 29.92 59.9C31.9 55.2067 33.77 50.7333 35.53 46.48C37.3633 42.2267 39.05 38.3033 40.59 34.71C35.6033 34.7833 31.2767 34.93 27.61 35.15C24.0167 35.37 20.7167 35.6633 17.71 36.03C14.7033 36.3233 11.5867 36.7633 8.36 37.35C8.72667 34.27 10.1567 31.9233 12.65 30.31C15.2167 28.6233 18.6267 27.45 22.88 26.79C27.1333 26.13 32.01 25.8 37.51 25.8C40.37 25.8 43.0467 25.8733 45.54 26.02C48.1067 26.0933 50.5267 26.24 52.8 26.46C55.1467 26.68 57.42 26.9 59.62 27.12C64.24 27.56 67.9067 27.8533 70.62 28C73.4067 28.1467 75.3867 28.22 76.56 28.22C74.36 30.2733 71.5733 31.7767 68.2 32.73C64.9 33.61 61.4167 34.16 57.75 34.38C54.0833 34.6 50.6 34.71 47.3 34.71C43.78 43.3633 40.5533 52.3467 37.62 61.66C34.6867 70.9733 31.9733 80.1767 29.48 89.27C28.5267 92.79 27.72 95.7967 27.06 98.29C26.4733 100.71 26.0333 102.947 25.74 105C25.4467 106.98 25.3 109.107 25.3 111.38C25.3 111.747 25.3 112.15 25.3 112.59C25.3733 113.103 25.4833 113.763 25.63 114.57Z" fill="#4285F4"/>
<path d="M118.62 110.57C114.367 110.57 110.48 109.433 106.96 107.16C103.44 104.96 100.653 101.807 98.6 97.7C96.5467 93.5933 95.52 88.68 95.52 82.96C95.52 77.3133 96.4 71.63 98.16 65.91C99.92 60.1167 102.34 54.6167 105.42 49.41C108.5 44.13 112.093 39.4367 116.2 35.33C120.307 31.15 124.67 27.8867 129.29 25.54C133.983 23.12 138.787 21.91 143.7 21.91C144.433 21.91 145.497 22.0567 146.89 22.35C148.357 22.6433 149.787 23.5233 151.18 24.99C150.74 24.9167 150.227 24.88 149.64 24.88C149.127 24.8067 148.577 24.77 147.99 24.77C144.177 24.77 140.327 25.98 136.44 28.4C132.553 30.7467 128.85 33.9367 125.33 37.97C121.81 42.0033 118.657 46.5867 115.87 51.72C113.157 56.78 110.993 62.06 109.38 67.56C107.767 73.06 106.96 78.4133 106.96 83.62C106.96 87.4333 107.473 90.99 108.5 94.29C109.527 97.59 111.177 100.23 113.45 102.21C115.723 104.263 118.73 105.29 122.47 105.29C126.503 105.29 130.28 104.08 133.8 101.66C137.32 99.24 140.51 96.0133 143.37 91.98C146.23 87.8733 148.687 83.3267 150.74 78.34C152.793 73.28 154.37 68.11 155.47 62.83C156.57 57.4767 157.12 52.38 157.12 47.54C157.12 45.4133 156.973 43.14 156.68 40.72C156.387 38.2267 155.873 36.1 155.14 34.34C154.48 32.58 153.49 31.7 152.17 31.7C150.923 31.7 149.567 32.5067 148.1 34.12C146.633 35.66 145.203 37.64 143.81 40.06C142.417 42.48 141.17 45.0467 140.07 47.76C139.043 50.4 138.31 52.7833 137.87 54.91C135.377 54.3967 133.58 53.59 132.48 52.49C131.453 51.39 130.94 50.07 130.94 48.53C130.94 46.55 131.637 44.35 133.03 41.93C134.423 39.51 136.22 37.2 138.42 35C140.693 32.7267 143.04 30.8567 145.46 29.39C147.953 27.9233 150.263 27.19 152.39 27.19C154.59 27.19 156.35 27.9967 157.67 29.61C159.063 31.15 160.127 33.1667 160.86 35.66C161.593 38.1533 162.107 40.83 162.4 43.69C162.693 46.4767 162.84 49.08 162.84 51.5C162.84 58.98 161.923 65.8367 160.09 72.07C158.257 78.23 155.763 83.6933 152.61 88.46C149.53 93.2267 146.047 97.26 142.16 100.56C138.347 103.86 134.387 106.353 130.28 108.04C126.247 109.727 122.36 110.57 118.62 110.57Z" fill="#4285F4"/>
<path d="M194.87 112.57C192.67 112.57 190.58 111.983 188.6 110.81C186.693 109.637 185.74 108.133 185.74 106.3C185.74 105.347 185.887 104.32 186.18 103.22C186.547 102.12 186.877 101.093 187.17 100.14C189.443 93.1733 191.57 86.6833 193.55 80.67C195.53 74.5833 197.51 68.7533 199.49 63.18C201.543 57.5333 203.67 51.8867 205.87 46.24C208.143 40.5933 210.673 34.69 213.46 28.53C210.673 29.1167 208.29 29.8867 206.31 30.84C204.33 31.72 202.717 32.5267 201.47 33.26C200.223 33.92 199.307 34.25 198.72 34.25C198.353 34.25 197.803 33.9933 197.07 33.48C196.41 32.9667 195.823 32.38 195.31 31.72C194.797 31.06 194.54 30.4733 194.54 29.96C196.593 29.08 198.977 28.1633 201.69 27.21C204.477 26.2567 207.483 25.45 210.71 24.79C213.937 24.13 217.163 23.8 220.39 23.8C223.837 23.8 227.357 24.2767 230.95 25.23C234.543 26.11 237.843 27.4667 240.85 29.3C243.93 31.06 246.387 33.2967 248.22 36.01C250.127 38.65 251.08 41.7667 251.08 45.36C251.08 49.2467 250.2 52.5833 248.44 55.37C246.68 58.1567 244.333 60.5033 241.4 62.41C238.54 64.3167 235.423 65.8567 232.05 67.03C228.677 68.2033 225.303 69.0833 221.93 69.67C218.63 70.2567 215.66 70.66 213.02 70.88C210.38 71.1 208.4 71.21 207.08 71.21H206.42C204.367 78.47 202.35 85.73 200.37 92.99C198.39 100.177 196.557 106.703 194.87 112.57ZM207.41 67.8C211.517 67.5067 215.623 66.81 219.73 65.71C223.837 64.61 227.54 63.1067 230.84 61.2C234.213 59.22 236.89 56.7633 238.87 53.83C240.923 50.8967 241.95 47.4867 241.95 43.6C241.95 39.9333 240.96 36.9633 238.98 34.69C237.073 32.4167 234.58 30.6933 231.5 29.52C228.493 28.3467 225.303 27.7233 221.93 27.65C219.29 32.7833 216.76 38.87 214.34 45.91C211.92 52.8767 209.61 60.1733 207.41 67.8Z" fill="#4285F4"/>
</svg>
